<?xml version="1.0" encoding="iso-8859-1"?>
<!-- Generator: Adobe Illustrator 18.0.0, SVG Export Plug-In . SVG Version: 6.00 Build 0)  -->
<!DOCTYPE svg PUBLIC "-//W3C//DTD SVG 1.1//EN" "http://www.w3.org/Graphics/SVG/1.1/DTD/svg11.dtd">
<svg version="1.1" fill="#000"
	 xmlns="http://www.w3.org/2000/svg" xmlns:xlink="http://www.w3.org/1999/xlink" x="0px" y="0px" viewBox="0 0 9.089 11.568"
	 style="enable-background:new 0 0 9.089 11.568;" xml:space="preserve">
<path style="fill:#000;" d="M6.151,7.971c0,0.28-0.06,0.53-0.179,0.75c-0.12,0.22-0.309,0.387-0.569,0.501
	c-0.295,0.13-0.585,0.199-0.87,0.21c-0.285,0.01-0.799,0.015-1.541,0.015H2.839V6.549h0.526c0.509,0,0.915,0.004,1.218,0.012
	c0.302,0.008,0.54,0.045,0.713,0.113C5.581,6.777,5.795,6.93,5.937,7.132C6.08,7.334,6.151,7.614,6.151,7.971 M5.434,3.271
	c0,0.254-0.044,0.477-0.13,0.668C5.217,4.131,5.06,4.281,4.831,4.39C4.622,4.488,4.42,4.542,4.224,4.553
	c-0.196,0.01-0.538,0.015-1.026,0.015H2.839V2.121h0.198c0.509,0,0.892,0.004,1.149,0.012s0.479,0.053,0.668,0.136
	C5.052,2.357,5.198,2.5,5.292,2.696C5.386,2.893,5.434,3.084,5.434,3.271 M6.769,5.229V5.167C7.257,4.959,7.64,4.636,7.918,4.195
	c0.277-0.44,0.416-0.942,0.416-1.507c0-0.486-0.101-0.917-0.302-1.289C7.831,1.026,7.527,0.728,7.12,0.505
	C6.744,0.298,6.34,0.162,5.911,0.097C5.481,0.033,4.848,0,4.014,0H0v11.568h4.548c0.789,0,1.439-0.072,1.95-0.217
	c0.511-0.145,0.981-0.389,1.408-0.731c0.361-0.285,0.649-0.644,0.862-1.079c0.214-0.436,0.321-0.94,0.321-1.516
	c0-0.787-0.211-1.412-0.633-1.876C8.033,5.686,7.471,5.379,6.769,5.229"/>
</svg>
